<svg id="undraw_file_sync_ot38" xmlns="http://www.w3.org/2000/svg" width="435.433" height="297" viewBox="0 0 435.433 297">
  <defs>
    <style>
      .cls-1 {
        fill: #2f2e41;
      }

      .cls-2 {
        fill: #f2f2f2;
      }

      .cls-3 {
        fill: #3f3d56;
      }

      .cls-4 {
        fill: #f90;
      }

      .cls-5 {
        fill: #fff;
      }

      .cls-6 {
        fill: #ccc;
      }

      .cls-7 {
        fill: #6c63ff;
      }

      .cls-8 {
        fill: #e6e6e6;
      }

      .cls-9 {
        fill: #ffb8b8;
      }

      .cls-10 {
        fill: #d0cde1;
      }

      .cls-11 {
        fill: #f9f8f8;
      }
    </style>
  </defs>
  <path id="Path_1" data-name="Path 1" class="cls-1" d="M419.316,68.757h-.5v-.883h.378a.252.252,0,0,0,.252-.252v-4.54a.252.252,0,0,0-.252-.252h-.378V60.251a5.493,5.493,0,0,0-5.493-5.493h-.561v-.631a.252.252,0,0,0-.252-.252h-4.54a.252.252,0,0,0-.252.252v.631H325.677a5.493,5.493,0,0,0-5.493,5.493v116.9a5.493,5.493,0,0,0,5.493,5.493h87.642a5.493,5.493,0,0,0,5.493-5.493V73.8h.5a.252.252,0,0,0,.252-.252V69.01a.252.252,0,0,0-.252-.252Z" transform="translate(-207.365 -53.875)"/>
  <rect id="Rectangle_6" data-name="Rectangle 6" class="cls-2" width="90.305" height="119.82" transform="translate(117.359 4.476)"/>
  <rect id="Rectangle_7" data-name="Rectangle 7" class="cls-3" width="435.433" height="0.75" transform="translate(0 250.421)"/>
  <path id="Path_2" data-name="Path 2" class="cls-4" d="M162.989,514.914c.841,28.789-15.98,39.339-37.09,39.955q-.736.021-1.464.026-1.468.011-2.908-.049c-19.092-.793-34.2-10.927-34.986-37.7-.809-27.707,33.581-63.707,36.161-66.37,0,0,0,0,0,0l.148-.152S162.148,486.128,162.989,514.914Z" transform="translate(-61.301 -301.889)"/>
  <path id="Path_3" data-name="Path 3" class="cls-5" d="M159.48,550.515l13.41-19.942-13.382,22.087.028,2.244q-1.468.011-2.908-.049l.665-28.844-.018-.223.025-.043.064-2.726L142.677,501.7l14.668,19.281.052.576.5-21.793-12.684-22.1,12.72,18.277-.133-45.149v-.15l0,.148.842,35.584,11.56-14.454-11.522,17.52.252,19.493L169.576,489.9l-10.6,21.891.14,10.839,15.47-26.5-15.423,30.283Z" transform="translate(-96.402 -301.897)"/>
  <path id="Path_4" data-name="Path 4" class="cls-1" d="M801.734,119.933h-.558v-15.3a8.854,8.854,0,0,0-8.854-8.854H759.911a8.854,8.854,0,0,0-8.854,8.854v83.926a8.854,8.854,0,0,0,8.854,8.854h32.411a8.854,8.854,0,0,0,8.854-8.854V130.823h.558Z" transform="translate(-476.711 -80.071)"/>
  <path id="Path_5" data-name="Path 5" class="cls-2" d="M803.365,109.764v83.8a6.613,6.613,0,0,1-6.612,6.613H764.187a6.612,6.612,0,0,1-6.611-6.612v-83.8a6.612,6.612,0,0,1,6.61-6.611h3.952a3.141,3.141,0,0,0,2.909,4.327h18.568a3.141,3.141,0,0,0,2.909-4.327h4.231a6.612,6.612,0,0,1,6.611,6.61Z" transform="translate(-480.787 -84.679)"/>
  <rect id="Rectangle_8" data-name="Rectangle 8" class="cls-6" width="27.515" height="1.022" transform="translate(290.289 29.616)"/>
  <rect id="Rectangle_9" data-name="Rectangle 9" class="cls-6" width="27.515" height="1.022" transform="translate(290.289 32.853)"/>
  <rect id="Rectangle_10" data-name="Rectangle 10" class="cls-6" width="27.515" height="1.022" transform="translate(290.289 36.091)"/>
  <rect id="Rectangle_11" data-name="Rectangle 11" class="cls-6" width="6.234" height="6.234" transform="translate(281.564 30.248)"/>
  <rect id="Rectangle_12" data-name="Rectangle 12" class="cls-6" width="27.515" height="1.022" transform="translate(290.289 102.343)"/>
  <rect id="Rectangle_13" data-name="Rectangle 13" class="cls-6" width="27.515" height="1.022" transform="translate(290.289 105.58)"/>
  <rect id="Rectangle_14" data-name="Rectangle 14" class="cls-6" width="27.515" height="1.022" transform="translate(290.289 108.818)"/>
  <rect id="Rectangle_15" data-name="Rectangle 15" class="cls-6" width="6.234" height="6.234" transform="translate(281.564 102.974)"/>
  <path id="Path_6" data-name="Path 6" class="cls-1" d="M529.669,431.754H451.423v-1.613h-35.48v1.613H337.375a5.293,5.293,0,0,0-5.293,5.293V544.189a5.293,5.293,0,0,0,5.293,5.293H529.669a5.293,5.293,0,0,0,5.293-5.293V437.046a5.293,5.293,0,0,0-5.293-5.293Z" transform="translate(-214.803 -289.086)"/>
  <rect id="Rectangle_16" data-name="Rectangle 16" class="cls-2" width="188.687" height="106.439" transform="translate(124.375 152.022)"/>
  <circle id="Ellipse_1" data-name="Ellipse 1" class="cls-7" cx="1.935" cy="1.935" r="1.935" transform="translate(216.623 145.248)"/>
  <path id="Path_7" data-name="Path 7" class="cls-1" d="M526.814,735.508H508.4v-1.327a.263.263,0,0,0-.263-.263h-6.313a.263.263,0,0,0-.263.263v1.327h-3.946v-1.327a.263.263,0,0,0-.263-.263h-6.314a.263.263,0,0,0-.263.263v1.327h-3.946v-1.327a.263.263,0,0,0-.263-.263h-6.314a.263.263,0,0,0-.263.263v1.327h-3.946v-1.327a.263.263,0,0,0-.263-.263h-6.313a.263.263,0,0,0-.263.263v1.327h-3.946v-1.327a.263.263,0,0,0-.263-.263H458.68a.263.263,0,0,0-.263.263v1.327h-3.946v-1.327a.263.263,0,0,0-.263-.263h-6.314a.263.263,0,0,0-.263.263v1.327h-3.946v-1.327a.263.263,0,0,0-.263-.263H393.965a.263.263,0,0,0-.263.263v1.327h-3.946v-1.327a.263.263,0,0,0-.263-.263H383.18a.263.263,0,0,0-.263.263v1.327h-3.946v-1.327a.263.263,0,0,0-.263-.263h-6.314a.263.263,0,0,0-.263.263v1.327h-3.946v-1.327a.263.263,0,0,0-.263-.263h-6.314a.263.263,0,0,0-.263.263v1.327H357.4v-1.327a.263.263,0,0,0-.263-.263h-6.314a.263.263,0,0,0-.263.263v1.327h-3.946v-1.327a.263.263,0,0,0-.263-.263h-6.314a.263.263,0,0,0-.263.263v1.327h-3.946v-1.327a.263.263,0,0,0-.263-.263h-6.314a.263.263,0,0,0-.263.263v1.327h-12.1a6.314,6.314,0,0,0-6.314,6.314v2.855a6.314,6.314,0,0,0,6.314,6.314H526.814a6.314,6.314,0,0,0,6.314-6.314v-2.855A6.314,6.314,0,0,0,526.814,735.508Z" transform="translate(-201.357 -478.982)"/>
  <rect id="Rectangle_17" data-name="Rectangle 17" class="cls-8" width="52.948" height="1.967" transform="translate(200.482 160.358)"/>
  <rect id="Rectangle_18" data-name="Rectangle 18" class="cls-8" width="52.948" height="1.967" transform="translate(200.482 166.588)"/>
  <rect id="Rectangle_19" data-name="Rectangle 19" class="cls-8" width="52.948" height="1.967" transform="translate(200.482 172.819)"/>
  <rect id="Rectangle_20" data-name="Rectangle 20" class="cls-6" width="52.948" height="1.967" transform="translate(200.482 160.358)"/>
  <rect id="Rectangle_21" data-name="Rectangle 21" class="cls-6" width="52.948" height="1.967" transform="translate(200.482 166.588)"/>
  <rect id="Rectangle_22" data-name="Rectangle 22" class="cls-6" width="52.948" height="1.967" transform="translate(200.482 172.819)"/>
  <rect id="Rectangle_23" data-name="Rectangle 23" class="cls-6" width="12" height="12" transform="translate(184 162)"/>
  <rect id="Rectangle_24" data-name="Rectangle 24" class="cls-6" width="52.948" height="1.967" transform="translate(200.482 230.461)"/>
  <rect id="Rectangle_25" data-name="Rectangle 25" class="cls-6" width="52.948" height="1.967" transform="translate(200.482 236.691)"/>
  <rect id="Rectangle_26" data-name="Rectangle 26" class="cls-6" width="52.948" height="1.967" transform="translate(200.482 242.922)"/>
  <rect id="Rectangle_27" data-name="Rectangle 27" class="cls-6" width="12" height="12" transform="translate(184 232)"/>
  <path id="Path_8" data-name="Path 8" class="cls-3" d="M918.961,349.379a19.942,19.942,0,0,0-11.849-6.252l1.949-1.76-2.156-.109-2.667,2.411,2.411,2.667,2.156.109-1.615-1.786a18.5,18.5,0,0,1-2.951,36.771v1.5a20.005,20.005,0,0,0,14.723-33.55Z" transform="translate(-572.468 -233.523)"/>
  <path id="Path_9" data-name="Path 9" class="cls-3" d="M244.158,349.379a19.942,19.942,0,0,1,11.849-6.252l-1.949-1.76,2.156-.109,2.667,2.411-2.411,2.667-2.156.109,1.615-1.786a18.5,18.5,0,0,0,2.951,36.771v1.5a20.005,20.005,0,0,1-14.723-33.55Z" transform="translate(-156.538 -233.523)"/>
  <rect id="Rectangle_28" data-name="Rectangle 28" class="cls-6" width="52.948" height="1.967" transform="translate(144.432 10.405)"/>
  <rect id="Rectangle_29" data-name="Rectangle 29" class="cls-6" width="52.948" height="1.967" transform="translate(144.432 16.636)"/>
  <rect id="Rectangle_30" data-name="Rectangle 30" class="cls-6" width="52.948" height="1.967" transform="translate(144.432 22.866)"/>
  <rect id="Rectangle_31" data-name="Rectangle 31" class="cls-6" width="11.996" height="11.996" transform="translate(127.642 11.621)"/>
  <rect id="Rectangle_32" data-name="Rectangle 32" class="cls-6" width="52.948" height="1.967" transform="translate(144.25 103.751)"/>
  <rect id="Rectangle_33" data-name="Rectangle 33" class="cls-6" width="52.948" height="1.967" transform="translate(144.25 109.981)"/>
  <rect id="Rectangle_34" data-name="Rectangle 34" class="cls-6" width="52.948" height="1.967" transform="translate(144.25 116.211)"/>
  <rect id="Rectangle_35" data-name="Rectangle 35" class="cls-6" width="12" height="12" transform="translate(127 105)"/>
  <path id="Path_10" data-name="Path 10" class="cls-9" d="M968.013,335.84l11.956-17.359s10.411-8.348,7.427-9.974-10.8,6-10.8,6-22.54,17.28-18.823,19.691S968.013,335.84,968.013,335.84Z" transform="translate(-605.678 -212.908)"/>
  <path id="Path_11" data-name="Path 11" class="cls-4" d="M990.406,290.2h15.484a54.157,54.157,0,0,0,0-18.462H990.406a33.218,33.218,0,0,1,0,18.462Z" transform="translate(-626.333 -190.066)"/>
  <path id="Path_12" data-name="Path 12" class="cls-1" d="M1037.917,309.565c-4.653-7.862-13.859-8.229-13.859-8.229s-8.97-1.147-14.725,10.827c-5.364,11.161-12.766,21.938-1.192,24.55l2.091-6.507,1.295,6.992a45.285,45.285,0,0,0,4.952.085c12.4-.4,24.2.117,23.82-4.331C1039.8,327.039,1042.393,317.13,1037.917,309.565Z" transform="translate(-633.588 -208.549)"/>
  <path id="Path_13" data-name="Path 13" class="cls-9" d="M1021.861,452.616l-5.961,13.71,20.862,3.278s9.835-13.412,10.729-14.306Z" transform="translate(-642.27 -303.135)"/>
  <circle id="Ellipse_2" data-name="Ellipse 2" class="cls-9" cx="11.027" cy="11.027" r="11.027" transform="translate(378.396 97.623)"/>
  <path id="Path_14" data-name="Path 14" class="cls-9" d="M1050.88,360.2s5.067,11.325,4.47,12.517,10.729-6.259,10.729-6.259-4.769-8.047-4.471-9.239Z" transform="translate(-664.137 -243.498)"/>
  <path id="Path_15" data-name="Path 15" class="cls-9" d="M1090.337,376.4s8.941-5.067,14.008,8.941c0,0,16.69,19.67,13.71,23.247s-14.306-8.643-14.306-8.643l-7.153-7.451s-10.133-2.682-9.239-8.345S1090.337,376.4,1090.337,376.4Z" transform="translate(-686.904 -254.931)"/>
  <path id="Path_16" data-name="Path 16" class="cls-9" d="M987.061,381.82,966.2,375.859s-11.027-4.471-10.729-1.788,20.266,17.882,26.823,16.988S987.061,381.82,987.061,381.82Z" transform="translate(-604.49 -253.499)"/>
  <path id="Path_17" data-name="Path 17" class="cls-10" d="M1039.245,380.914s-6.855-.894-8.345.6-4.321.149-4.321.149l-4.769,8.643s-3.427,4.918-.745,9.686-1.192,11.027-1.192,11.027,21.458,0,25.929,2.384,9.859-19.894,9.859-19.894-5.537-6.78-4.047-10.952a13.491,13.491,0,0,0,.6-7.451l-6.557.6Z" transform="translate(-644.753 -254.68)"/>
  <path id="Path_18" data-name="Path 18" class="cls-9" d="M983.936,685.142l2.385,22.949,9.238-4.768-2.98-19.969Z" transform="translate(-615.076 -427.177)"/>
  <path id="Path_19" data-name="Path 19" class="cls-9" d="M1076.95,679.377l7.76,20.746,7.449-5.365-9.248-20.15Z" transform="translate(-673.221 -421.71)"/>
  <path id="Path_20" data-name="Path 20" class="cls-1" d="M991.382,769.824a18.612,18.612,0,0,1-2.086,4.769c-1.49,2.384-5.067,1.192-5.067,1.192s-4.172-3.278-5.067-1.788-5.663,8.941-5.663,8.941-15.8,13.113-2.384,15.2,16.094-7.749,16.094-7.749,10.133-3.576,10.431-7.153S991.382,769.824,991.382,769.824Z" transform="translate(-610.899 -501.428)"/>
  <path id="Path_21" data-name="Path 21" class="cls-1" d="M1110.183,765.014s-4.769-1.49-4.47.894,2.086,11.921,2.086,11.921-3.278,13.412,5.961,11.027,9.537-15.2,9.537-15.2,4.769-16.988,1.192-17.286-12.219-1.192-12.219-1.192S1117.632,763.822,1110.183,765.014Z" transform="translate(-698.405 -492.273)"/>
  <path id="Path_22" data-name="Path 22" class="cls-1" d="M1032.621,259.495l-9.095-4.764-12.559,1.949-2.6,11.477,6.467-.249,1.807-4.216v4.147l2.988-.115,1.732-6.713,1.083,7.146,10.609-.217Z" transform="translate(-630.35 -159.237)"/>
  <path id="Path_23" data-name="Path 23" class="cls-1" d="M1007.792,486.1l-25.035-5.663s-12.517,21.458-14.306,39.34-9.835,60.8,2.98,61.4,20.266.6,20.862-.6-6.259-48.281-6.259-48.281,14.6,57.819,22.651,53.944,16.988-8.941,16.69-11.921-19.67-34.572-19.67-34.572l2.682-27.419s3.278-11.027-2.384-21.16Z" transform="translate(-610.023 -320.529)"/>
  <path id="Path_24" data-name="Path 24" class="cls-4" d="M1032.16,444.887h15.484a54.157,54.157,0,0,0,0-18.462H1032.16A33.219,33.219,0,0,1,1032.16,444.887Z" transform="translate(-652.434 -286.763)"/>
  <path id="Path_25" data-name="Path 25" class="cls-9" d="M1089.019,430.08l-26.227-.6s-11.623-8.941-11.921-3.576,12.219,8.345,12.219,8.345,26.91,9.656,31.039,5.424Z" transform="translate(-664.127 -285.368)"/>
  <circle id="Ellipse_3" data-name="Ellipse 3" class="cls-4" cx="8.946" cy="8.946" r="8.946" transform="translate(131.959 56.295)"/>
  <circle id="Ellipse_4" data-name="Ellipse 4" class="cls-4" cx="7.31" cy="7.31" r="7.31" transform="translate(157.45 57.931)"/>
  <circle id="Ellipse_5" data-name="Ellipse 5" class="cls-4" cx="4.447" cy="4.447" r="4.447" transform="translate(184.169 60.794)"/>
  <circle id="Ellipse_6" data-name="Ellipse 6" class="cls-4" cx="4.7" cy="4.7" r="4.7" transform="translate(283.576 61.662)"/>
  <circle id="Ellipse_7" data-name="Ellipse 7" class="cls-4" cx="3.736" cy="3.736" r="3.736" transform="translate(297.072 62.625)"/>
  <circle id="Ellipse_8" data-name="Ellipse 8" class="cls-4" cx="2.45" cy="2.45" r="2.45" transform="translate(310.89 63.911)"/>
  <circle id="Ellipse_9" data-name="Ellipse 9" class="cls-4" cx="20.993" cy="20.993" r="20.993" transform="translate(197.563 180.705)"/>
  <path id="Path_26" data-name="Path 26" class="cls-11" d="M577.787,523.974l-7.831-15.815-7.79,15.836,4.4-.006v6.567h6.813V523.98Z" transform="translate(-351.42 -317.659)"/>
</svg>
